<?xml version="1.0" standalone="no"?>
<!DOCTYPE svg PUBLIC "-//W3C//DTD SVG 1.1//EN" "http://www.w3.org/Graphics/SVG/1.1/DTD/svg11.dtd" >
<svg xmlns="http://www.w3.org/2000/svg">
<metadata>
This is a custom SVG webfont generated by Font Squirrel.
Copyright   : Copyright  1989 1990 2002 Adobe Systems Incorporated  All Rights Reserved  1981 2002 Heidelberger Druckmaschinen AG All rights reserved
Designer    : Jackson Burke
Foundry URL : httpwwwadobecomtype
</metadata>
<defs>
<font id="webfontRVqlUeQN" horiz-adv-x="1024" >
<font-face units-per-em="2048" ascent="1479" descent="-569" />
<missing-glyph horiz-adv-x="569" />
<glyph unicode=" "  horiz-adv-x="569" />
<glyph unicode="&#x09;" horiz-adv-x="569" />
<glyph unicode="&#xa0;" horiz-adv-x="569" />
<glyph unicode="!" horiz-adv-x="569" d="M434 1479l-57 -979h-184l-58 979h299zM430 0h-291v291h291v-291z" />
<glyph unicode="&#x22;" horiz-adv-x="681" d="M408 926v553h225v-553h-225zM49 926v553h225v-553h-225z" />
<glyph unicode="#" horiz-adv-x="1138" d="M1036 614v-192h-202l-60 -422h-196l57 422h-203l-59 -422h-197l57 422h-192v192h219l37 250h-193v193h218l59 422h197l-58 -422h203l59 422h197l-57 -422h176v-193h-201l-37 -250h176zM698 864h-202l-37 -250h203z" />
<glyph unicode="$" horiz-adv-x="1138" d="M39 260l176 160q117 -162 260 -191v422q-178 51 -293.5 161t-115.5 271q0 176 116.5 281.5t292.5 114.5v131h160v-131q227 -39 389 -217l-160 -154q-111 133 -229 145v-376q98 -35 166.5 -70t134 -89t99.5 -131t34 -177q0 -180 -125 -293t-309 -117v-233h-160v235 q-104 0 -231 77t-205 181zM475 922v344q-74 -2 -125 -45t-51 -117q0 -63 51 -111t125 -71zM635 604v-379q80 0 132 49.5t52 126.5q0 43 -13 75t-45 56.5t-55.5 38t-70.5 33.5z" />
<glyph unicode="%" horiz-adv-x="1820" d="M438.5 1479q153.5 0 261 -108.5t107.5 -260.5t-107.5 -260.5t-261 -108.5t-261 108.5t-107.5 260.5t107.5 260.5t261 108.5zM438.5 1278q-67.5 0 -118 -50t-50.5 -118t50.5 -118t118 -50t117.5 50t50 118t-50 118t-117.5 50zM1382.5 737q153.5 0 261 -108.5t107.5 -260 t-107.5 -260t-261 -108.5t-261 108.5t-107.5 260t107.5 260t261 108.5zM1382.5 537q-67.5 0 -118 -50.5t-50.5 -118t50.5 -117.5t118 -50t117.5 50t50 117.5t-50 118t-117.5 50.5zM403 -20l850 1519h174l-849 -1519h-175z" />
<glyph unicode="&#x26;" horiz-adv-x="1366" d="M561.5 1327q-59.5 0 -94.5 -45t-35 -115q0 -94 84 -233q6 6 38 34l43 38q11 10 34.5 36.5t33 45t18.5 46t9 56.5q0 53 -35.5 95t-95 42zM1038 743l228 -63q-86 -225 -176 -369q102 -72 204 -82v-249q-109 0 -189.5 31.5t-182.5 119.5q-156 -152 -371 -151 q-219 0 -350 105t-131 304q0 143 63.5 236.5t185.5 173.5q-121 180 -120 331q0 180 108.5 274.5t270.5 94.5q150 0 249 -96t99 -238q0 -55 -18.5 -107t-40 -86t-69.5 -81t-72 -67l-85 -68q121 -162 264 -301q106 190 133 288zM352 426q0 -102 61.5 -157.5t149.5 -55.5 q119 0 191 82q-154 135 -295 315q-107 -82 -107 -184z" />
<glyph unicode="'" horiz-adv-x="454" d="M115 926v553h225v-553h-225z" />
<glyph unicode="(" horiz-adv-x="681" d="M623 -172h-242q-279 391 -279 835.5t279 835.5h242q-139 -195 -217 -392.5t-78 -443t78 -443t217 -392.5z" />
<glyph unicode=")" horiz-adv-x="681" d="M301 -172h-242q139 195 217 392.5t78 443t-77.5 443.5t-217.5 392h242q279 -391 279 -835.5t-279 -835.5z" />
<glyph unicode="*" d="M410 1479h204l-59 -297l8 -11l273 140l53 -183l-299 -36l-4 -13l217 -213l-154 -116l-131 274h-12l-131 -274l-154 116l217 213l-4 13l-299 36l53 183l273 -140l8 11z" />
<glyph unicode="+" horiz-adv-x="1228" d="M489 682v432h250v-432h432v-250h-432v-432h-250v432h-432v250h432z" />
<glyph unicode="," horiz-adv-x="569" d="M158 -303l104 303h-123v291h291v-291l-129 -303h-143z" />
<glyph unicode="-" horiz-adv-x="681" d="M592 444h-504v226h504v-226z" />
<glyph unicode="." horiz-adv-x="569" d="M430 0h-291v291h291v-291z" />
<glyph unicode="/" horiz-adv-x="569" d="M688 1499l-557 -1519h-250l557 1519h250z" />
<glyph unicode="0" horiz-adv-x="1138" d="M74 492v495q0 240 129 376t366.5 136t366.5 -136t129 -376v-495q0 -240 -129 -376t-366.5 -136t-366.5 136t-129 376zM344 956v-434q0 -174 53.5 -241.5t172 -67.5t172 67.5t53.5 241.5v434q0 174 -53.5 242t-172 68t-172 -68t-53.5 -242z" />
<glyph unicode="1" horiz-adv-x="1138" d="M481 0v1130h-227v162q39 8 73.5 18.5t58.5 18.5t48 25l36 23q11 7 31.5 30t25.5 28t25.5 32.5t25.5 31.5h161v-1499h-258z" />
<glyph unicode="2" horiz-adv-x="1138" d="M1014 0h-932v240q449 426 566.5 567t117.5 256q0 92 -50 147.5t-147 55.5q-100 0 -155.5 -54.5t-55.5 -140.5v-53h-270v69q0 170 127 291t334 121q223 0 355 -111.5t132 -318.5q0 -96 -41 -193.5t-115.5 -185.5t-146.5 -159l-166 -158q-94 -88 -143 -140h590v-233z" />
<glyph unicode="3" horiz-adv-x="1138" d="M70 434h270q0 -115 53 -168t166 -53q102 0 158.5 60.5t56.5 158.5q0 123 -71.5 176.5t-227.5 55.5v233q143 0 203.5 44t60.5 146q0 80 -50 129.5t-140 49.5q-76 0 -125 -48.5t-53 -123.5h-271q2 197 128 301t323 104q207 0 333 -105.5t126 -295.5q0 -100 -47.5 -189.5 t-131.5 -132.5q213 -84 213 -356q0 -211 -136 -325.5t-345 -114.5q-244 0 -368.5 120.5t-124.5 333.5z" />
<glyph unicode="4" horiz-adv-x="1138" d="M225 598h424v578h-4zM0 627l627 852h280v-881h207v-209h-207v-389h-258v389h-649v238z" />
<glyph unicode="5" horiz-adv-x="1138" d="M72 424h270q-4 -100 52.5 -155.5t158.5 -55.5q127 0 178 79t51 243q0 285 -215 284q-133 0 -217 -114h-223v774h854v-234h-621v-307q127 90 269 90q225 0 324.5 -129t99.5 -371q0 -549 -496 -548q-133 0 -230.5 36.5t-151.5 102t-78.5 141.5t-24.5 164z" />
<glyph unicode="6" horiz-adv-x="1138" d="M344 604v-82q0 -174 53.5 -241.5t171.5 -67.5q104 0 158.5 71.5t54.5 200.5q0 119 -57 179.5t-156 60.5q-92 0 -225 -121zM1026 1092h-270q-2 76 -56.5 125t-130.5 49q-119 0 -172 -68t-53 -242v-137q152 115 318 115q186 0 288.5 -125t102.5 -313q0 -238 -120 -377 t-364 -139q-238 0 -366.5 136t-128.5 376v495q0 240 129 376t366 136q197 0 320 -105t137 -302z" />
<glyph unicode="7" horiz-adv-x="1138" d="M61 1245v234h934v-136l-399 -1343h-295l410 1245h-650z" />
<glyph unicode="8" horiz-adv-x="1138" d="M795 428q0 102 -61.5 164.5t-164 62.5t-164 -62.5t-61.5 -164.5q0 -215 225.5 -215t225.5 215zM758 1075q0 80 -53.5 135.5t-135.5 55.5t-135 -55.5t-53 -135.5q0 -78 55.5 -132t133 -54t133 54t55.5 132zM1065 420q0 -213 -138.5 -326.5t-357.5 -113.5t-357 113.5 t-138 326.5q0 272 215 356q-84 43 -131 132t-47 190q0 197 128 299t330.5 102t330.5 -102.5t128 -298.5q0 -100 -47 -189.5t-131 -132.5q215 -84 215 -356z" />
<glyph unicode="9" horiz-adv-x="1138" d="M795 874v82q0 174 -53.5 242t-172.5 68q-104 0 -158.5 -72t-54.5 -201q0 -119 57.5 -179t155.5 -60q93 -1 226 120zM113 387h270q2 -76 56.5 -125t129.5 -49q119 0 172.5 67.5t53.5 241.5v137q-152 -115 -318 -114q-186 0 -288.5 125t-102.5 313q0 238 120 377t363 139 q238 0 367 -136t129 -376v-495q0 -240 -129 -376t-367 -136q-197 0 -319.5 105t-136.5 302z" />
<glyph unicode=":" horiz-adv-x="569" d="M430 0h-291v291h291v-291zM430 614h-291v291h291v-291z" />
<glyph unicode=";" horiz-adv-x="569" d="M158 -303l104 303h-123v291h291v-291l-129 -303h-143zM430 614h-291v291h291v-291z" />
<glyph unicode="&#x3c;" horiz-adv-x="1228" d="M1171 221v-239l-1114 477v196l1114 478v-240l-796 -336z" />
<glyph unicode="=" horiz-adv-x="1228" d="M1171 932v-250h-1114v250h1114zM1171 432v-250h-1114v250h1114z" />
<glyph unicode="&#x3e;" horiz-adv-x="1228" d="M57 -18v239l797 336l-797 336v240l1114 -478v-196z" />
<glyph unicode="?" horiz-adv-x="909" d="M256 1110l-236 66q39 152 147.5 237.5t264.5 85.5t269.5 -93t113.5 -255q0 -98 -147 -287l-75 -99q-22 -30 -47.5 -81t-25.5 -90v-102h-225v200q0 47 131 232.5t131 246.5q0 51 -39 85t-90 34q-61 0 -114.5 -56t-57.5 -124zM553 0h-291v291h291v-291z" />
<glyph unicode="@" horiz-adv-x="1638" d="M842 926q-92 0 -155.5 -74t-63.5 -166q0 -76 43 -123t114 -47q96 0 160 74t64 170q0 74 -45 120t-117 46zM1061 1008l24 102h185l-103 -500q-14 -78 -14 -80q0 -39 31 -38q78 0 142.5 89t64.5 242q0 240 -150.5 372t-392.5 132q-254 0 -408.5 -166t-154.5 -424 q0 -266 165.5 -425.5t430.5 -159.5q233 0 403 143h189q-106 -152 -263 -233.5t-346 -81.5q-328 0 -558 216t-230 541q0 322 227 542t551 220q283 0 496 -173t213 -445q0 -127 -42 -233.5t-103.5 -170t-135.5 -107.5t-134.5 -61.5t-103.5 -17.5q-45 0 -76.5 28.5t-33.5 77.5 l-4 2q-96 -109 -205 -108q-131 0 -229.5 107.5t-98.5 252.5q0 193 118 338.5t302 145.5q162 0 244 -127z" />
<glyph unicode="A" horiz-adv-x="1138" d="M569 1159l-139 -598h281l-138 598h-4zM299 0h-272l366 1479h363l356 -1479h-270l-72 311h-391z" />
<glyph unicode="B" horiz-adv-x="1138" d="M127 0v1479h397q229 0 353 -96.5t124 -284.5q0 -197 -182 -307q121 -76 169 -154t48 -211q0 -213 -132 -319.5t-363 -106.5h-414zM410 659v-426h118q109 0 167.5 58.5t58.5 157.5q0 102 -65.5 156t-180.5 54h-98zM410 1245v-352h98q94 0 152.5 49t58.5 125q0 84 -49 131 t-148 47h-112z" />
<glyph unicode="C" horiz-adv-x="1138" d="M385 1040v-602q0 -117 47 -163t137 -46t137.5 46.5t47.5 162.5v99h282v-62q0 -496 -467 -495.5t-467 495.5v529q0 496 467 495.5t467 -495.5v-5h-282v41q0 117 -47.5 163t-137.5 46t-137 -46t-47 -163z" />
<glyph unicode="D" horiz-adv-x="1138" d="M127 0v1479h393q250 0 379 -120t137 -392v-455q-8 -272 -137 -392t-379 -120h-393zM410 1229v-979h98q123 0 184.5 67.5t61.5 227.5v389q0 158 -57.5 226.5t-188.5 68.5h-98z" />
<glyph unicode="E" d="M922 0h-795v1479h774v-250h-491v-340h374v-250h-374v-389h512v-250z" />
<glyph unicode="F" horiz-adv-x="909" d="M410 0h-283v1479h737v-250h-454v-340h356v-250h-356v-639z" />
<glyph unicode="G" horiz-adv-x="1138" d="M877 0l-43 123q-127 -143 -265 -143q-467 0 -467 495v529q0 496 467 495q440 0 455 -502h-283q0 252 -172 252q-90 0 -137 -46t-47 -163v-602q0 -117 47 -163t137 -46q80 0 126 55.5t46 149.5v90h-198v234h481v-758h-147z" />
<glyph unicode="H" horiz-adv-x="1251" d="M426 0h-283v1479h283v-590h399v590h283v-1479h-283v639h-399v-639z" />
<glyph unicode="I" horiz-adv-x="569" d="M426 0h-283v1479h283v-1479z" />
<glyph unicode="J" horiz-adv-x="681" d="M256 1479h283v-1166q0 -152 -99.5 -242.5t-279.5 -90.5q-78 0 -140 6v250q8 0 35 -3.5t41 -3.5q94 0 127 30t33 112v1108z" />
<glyph unicode="K" horiz-adv-x="1138" d="M410 0h-283v1479h283v-611h4l366 611h310l-381 -596l424 -883h-318l-295 621l-110 -168v-453z" />
<glyph unicode="L" horiz-adv-x="909" d="M864 0h-737v1479h283v-1229h454v-250z" />
<glyph unicode="M" horiz-adv-x="1593" d="M385 0h-242v1479h396l256 -971h4l256 971h395v-1479h-242v1163h-4l-301 -1163h-213l-301 1163h-4v-1163z" />
<glyph unicode="N" horiz-adv-x="1251" d="M401 0h-258v1479h310l393 -877h4v877h258v-1479h-270l-432 954h-5v-954z" />
<glyph unicode="O" horiz-adv-x="1138" d="M102 475v529q0 496 467 495.5t467 -495.5v-529q0 -496 -467 -496t-467 496zM385 1040v-602q0 -117 47 -163t137 -46t137.5 46.5t47.5 162.5v602q0 117 -47.5 163t-137.5 46t-137 -46t-47 -163z" />
<glyph unicode="P" horiz-adv-x="1138" d="M426 0h-283v1479h408q258 0 388 -115t130 -328t-130 -327.5t-388 -114.5h-125v-594zM426 1245v-418h152q209 0 208.5 209t-208.5 209h-152z" />
<glyph unicode="Q" horiz-adv-x="1138" d="M1124 137v-246q-174 0 -297 146q-102 -57 -258 -57q-467 0 -467 495v529q0 496 467 495.5t467 -495.5v-529q0 -176 -59 -289q63 -47 147 -49zM551 369v245q119 -16 199 -135h4v561q0 117 -47.5 163t-137.5 46t-137 -46t-47 -163v-602q0 -117 47 -163t137 -46q68 0 107 23 q-68 97 -125 117z" />
<glyph unicode="R" horiz-adv-x="1138" d="M1094 0h-303l-246 602h-135v-602h-283v1479h410q250 0 375.5 -115t125.5 -328q0 -293 -223 -377zM410 1245v-409h145q201 0 201 204.5t-201 204.5h-145z" />
<glyph unicode="S" horiz-adv-x="1138" d="M1006 1141l-254 -74q-35 104 -84.5 151.5t-123 47.5t-114.5 -43t-41 -119q0 -59 64.5 -111.5t158 -100.5t186.5 -106.5t157.5 -157t64.5 -227.5q0 -193 -125 -307t-346 -114q-375 0 -483 415l278 60q23 -123 85.5 -182.5t133.5 -59.5q76 0 125 47t49 129q0 66 -47 120 t-117 92l-151 86q-82 48 -151.5 96t-117 127t-47.5 175q0 195 115 304.5t330 109.5q182 0 299 -97t156 -261z" />
<glyph unicode="T" d="M41 1479h942v-250h-330v-1229h-282v1229h-330v250z" />
<glyph unicode="U" horiz-adv-x="1251" d="M143 1479h283v-1035q0 -215 199 -215q201 0 200 215v1035h283v-1037q0 -236 -128 -349t-355.5 -113t-354.5 113.5t-127 348.5v1037z" />
<glyph unicode="V" horiz-adv-x="1138" d="M410 0l-379 1479h278l260 -1057h4l258 1057h277l-377 -1479h-321z" />
<glyph unicode="W" horiz-adv-x="1705" d="M356 0l-309 1479h262l199 -967h4l203 967h272l205 -967h4l197 967h264l-324 -1479h-272l-207 1012h-4l-223 -1012h-271z" />
<glyph unicode="X" horiz-adv-x="1138" d="M356 1479l213 -443l213 443h303l-358 -701l393 -778h-305l-246 522l-245 -522h-306l398 778l-363 701h303z" />
<glyph unicode="Y" horiz-adv-x="1138" d="M326 1479l247 -596l240 596h301l-403 -881v-598h-283v598l-403 881h301z" />
<glyph unicode="Z" d="M125 1229v250h819v-238l-559 -991h571v-250h-888v240l559 989h-502z" />
<glyph unicode="[" horiz-adv-x="681" d="M582 -152h-480v1631h480v-123h-254v-1385h254v-123z" />
<glyph unicode="\" horiz-adv-x="569" d="M438 -20l-557 1519h250l557 -1519h-250z" />
<glyph unicode="]" horiz-adv-x="681" d="M100 1479h480v-1631h-480v123h254v1385h-254v123z" />
<glyph unicode="^" horiz-adv-x="1228" d="M346 655h-240l398 824h221l397 -824h-243l-265 578z" />
<glyph unicode="_" d="M1024 -256h-1024v102h1024v-102z" />
<glyph unicode="`" horiz-adv-x="569" d="M-49 1548h317l191 -299h-207z" />
<glyph unicode="a" d="M356 788h-258q14 176 138 267q106 80 276 80q379 0 379 -338v-707q0 -41 14 -90h-258q-4 16 -9 52t-9 57q-129 -129 -307 -129q-121 0 -188.5 67.5t-67.5 198.5q0 94 40.5 166.5t124.5 127t175.5 92.5t226.5 79v82q0 68 -37 100.5t-96.5 32.5t-101.5 -39.5t-42 -98.5z M633 274v271q-309 -106 -309 -256q0 -55 30.5 -86t83.5 -31q93 0 195 102z" />
<glyph unicode="b" d="M381 862v-610q74 -80 156 -80q59 0 93 56.5t34 209.5v238q0 154 -34 210t-93 56q-82 0 -156 -80zM360 0h-237v1479h258v-467q168 123 258 123q147 0 215 -111t68 -332v-270q0 -221 -68 -331.5t-215 -110.5q-80 0 -159 48t-115 107h-5v-135z" />
<glyph unicode="c" d="M920 729h-256v49q0 63 -41 97t-111 34t-111 -33.5t-41 -97.5v-442q0 -63 41 -97t111 -34t111 33.5t41 97.5v70h258v-5q0 -422 -410 -421.5t-410 421.5v312q0 422 410 422q402 0 408 -406z" />
<glyph unicode="d" d="M643 252v610q-74 80 -156 80q-59 0 -93 -56.5t-34 -209.5v-238q0 -154 34 -210t93 -56q82 0 156 80zM901 0h-237v135h-5q-37 -59 -115.5 -107t-158.5 -48q-147 0 -215 110.5t-68 331.5v270q0 221 68 332t215 111q90 0 258 -123v467h258v-1479z" />
<glyph unicode="e" d="M922 496h-562v-148q0 -80 42 -120t110 -40q78 0 115 43t37 113h258q-10 -174 -113.5 -269t-296.5 -95q-186 0 -298 106.5t-112 288.5v364q0 182 112 289t298 107q180 0 295 -104.5t115 -274.5v-260zM360 705h304v61q0 160 -152 160t-152 -160v-61z" />
<glyph unicode="f" horiz-adv-x="569" d="M553 1487v-213h-74q-88 0 -88 -94v-115h154v-209h-154v-856h-258v856h-117v209h117v106q0 184 73 256t224 72q37 0 123 -12z" />
<glyph unicode="g" d="M598 711q0 215 -135 215q-74 0 -104.5 -55.5t-30.5 -186.5q0 -209 123 -209q86 0 116.5 47.5t30.5 188.5zM979 1135v-226q-6 2 -23.5 6.5t-33 7.5t-23.5 3q-4 0 -88 -25q33 -147 33 -196q0 -438 -373 -439q-61 0 -106 15q-4 -6 -17.5 -18.5t-21 -24t-7.5 -23.5 q0 -33 49 -45q44 -11 109 -11h10h15q66 0 141 -8q84 -9 155.5 -30t120 -80t48.5 -154q0 -139 -132.5 -209.5t-363.5 -70.5q-203 0 -314.5 54t-111.5 149q0 14 3 26t10 25l14 22q6 10 18 22l20 17q7 6 23 18l23 15q6 4 24.5 15.5t20.5 13.5q-106 63 -107 157q0 41 29 80 t56.5 59.5t70.5 47.5q-92 59 -130 151t-38 236q0 420 381 420q82 0 162 -35t129 -94q102 129 225 129zM627 -74l-283 25q-53 -53 -53 -90q0 -82 235 -82q195 0 195 88q0 29 -19.5 42t-74.5 17z" />
<glyph unicode="h" d="M381 0h-258v1479h258v-492q156 147 281 148q121 0 180 -68t59 -219v-848h-258v819q0 123 -94 123q-55 0 -168 -100v-842z" />
<glyph unicode="i" horiz-adv-x="569" d="M156 1114h258v-1114h-258v1114zM414 1307h-258v233h258v-233z" />
<glyph unicode="j" horiz-adv-x="569" d="M156 1114h258v-1204q0 -152 -88 -227.5t-228 -75.5q-51 0 -94 6v227q82 0 117 24.5t35 78.5v1171zM414 1307h-258v233h258v-233z" />
<glyph unicode="k" d="M393 0h-258v1479h258v-797h4l275 432h289l-256 -377l278 -737h-272l-189 522l-129 -182v-340z" />
<glyph unicode="l" horiz-adv-x="569" d="M156 0v1479h258v-1479h-258z" />
<glyph unicode="m" horiz-adv-x="1478" d="M123 0v1114h250v-127q53 47 87 73.5t86 50.5t103 24q145 0 197 -168q74 82 136 125t138 43q236 0 236 -295v-840h-258v848q0 94 -68 94q-35 0 -85 -32.5t-77 -67.5v-842h-258v848q0 94 -69 94q-39 0 -86 -31.5t-74 -68.5v-842h-258z" />
<glyph unicode="n" d="M381 0h-258v1114h250v-127q84 72 149.5 110t139.5 38q121 0 180 -68t59 -219v-848h-258v819q0 123 -94 123q-55 0 -168 -100v-842z" />
<glyph unicode="o" d="M102 401v312q0 422 410 422t410 -422v-312q0 -422 -410 -422t-410 422zM360 778v-442q0 -63 41 -97t111 -34t111 33.5t41 97.5v442q0 63 -41 97t-111 34t-111 -34t-41 -97z" />
<glyph unicode="p" d="M381 862v-610q74 -80 156 -80q59 0 93 56.5t34 209.5v238q0 154 -34 210t-93 56q-82 0 -156 -80zM123 1114h237v-135h5q37 59 115.5 107.5t158.5 48.5q147 0 215 -111t68 -332v-270q0 -221 -68 -331.5t-215 -110.5q-90 0 -258 122v-495h-258v1507z" />
<glyph unicode="q" d="M643 252v610q-74 80 -156 80q-59 0 -93 -56.5t-34 -209.5v-238q0 -154 34 -210t93 -56q82 0 156 80zM664 1114h237v-1507h-258v495q-168 -123 -258 -122q-147 0 -215 110.5t-68 331.5v270q0 221 68 332t215 111q80 0 159 -48.5t115 -107.5h5v135z" />
<glyph unicode="r" horiz-adv-x="681" d="M381 0h-258v1114h252v-147h4q90 168 266 168v-279q-100 29 -137 29q-59 0 -93 -37t-34 -86v-762z" />
<glyph unicode="s" horiz-adv-x="909" d="M827 856l-213 -82q-51 152 -178 152q-45 0 -74.5 -29t-29.5 -72q0 -47 52 -86t126 -72.5t147.5 -74.5t126 -111.5t52.5 -163.5q0 -162 -102.5 -249.5t-268.5 -87.5q-137 0 -235.5 63t-184.5 254l231 63q37 -172 189 -172q59 0 92 27t33 72q0 57 -52.5 100t-126 75 t-147.5 70.5t-126 112.5t-52 178q0 150 102.5 231t249.5 81q141 0 240.5 -75t148.5 -204z" />
<glyph unicode="t" horiz-adv-x="569" d="M115 856h-103v209h103v303h258v-303h166v-209h-166v-569q0 -82 116 -82q35 0 52 2v-217q-61 -10 -148 -10q-279 0 -278 221v655z" />
<glyph unicode="u" d="M643 1114h258v-1114h-250v127q-84 -72 -149.5 -109.5t-139.5 -37.5q-121 0 -180 67.5t-59 218.5v848h258v-819q0 -123 94 -123q55 0 168 100v842z" />
<glyph unicode="v" horiz-adv-x="909" d="M283 1114l170 -717h4l170 717h258l-303 -1114h-254l-303 1114h258z" />
<glyph unicode="w" horiz-adv-x="1366" d="M293 0l-266 1114h241l150 -696h4l149 696h222l157 -696h4l142 696h241l-262 -1114h-241l-158 696h-4l-137 -696h-242z" />
<glyph unicode="x" horiz-adv-x="909" d="M317 573l-282 541h274l146 -319l149 319h275l-283 -543l301 -571h-274l-168 360l-168 -360h-275z" />
<glyph unicode="y" horiz-adv-x="909" d="M66 -389v225q25 -4 75 -4q78 0 132.5 52.5t54.5 95.5q0 70 -47 235l-258 899h262l174 -737h4l162 737h262l-297 -1110q-59 -227 -154.5 -312t-288.5 -85q-24 0 -81 4z" />
<glyph unicode="z" horiz-adv-x="909" d="M104 889v225h742v-221l-473 -668h473v-225h-783v221l465 668h-424z" />
<glyph unicode="{" horiz-adv-x="681" d="M535 1499v-123h-64q-55 0 -82 -28.5t-27 -96.5v-397q0 -160 -161 -186v-4q162 -27 161 -187v-401q0 -68 27 -96.5t82 -28.5h64v-123h-162q-94 0 -165 63.5t-71 180.5v403q0 129 -145 129v123q145 0 145 129v399q0 117 71 180.5t165 63.5h162z" />
<glyph unicode="|" horiz-adv-x="454" d="M102 -20v1519h250v-1519h-250z" />
<glyph unicode="}" horiz-adv-x="681" d="M147 -172v123h64q55 0 81.5 28.5t26.5 96.5v397q0 160 162 186v5q-162 27 -162 186v401q0 68 -26.5 96.5t-81.5 28.5h-64v123h162q94 0 165 -63.5t71 -180.5v-403q0 -129 145 -129v-123q-145 0 -145 -129v-399q0 -117 -71 -180.5t-165 -63.5h-162z" />
<glyph unicode="~" horiz-adv-x="1228" d="M1044 756l78 -201q-41 -57 -70.5 -92t-85 -65.5t-118.5 -30.5q-88 0 -227 75q-147 74 -261 74q-102 0 -174 -158l-80 197q100 190 277 190q80 0 251 -74.5t228 -74.5q37 0 73 27.5t55 53.5t54 79z" />
<glyph unicode="&#xa1;" horiz-adv-x="569" d="M434 -365h-299l58 979h184zM139 1114h291v-291h-291v291z" />
<glyph unicode="&#xa2;" horiz-adv-x="1138" d="M395 276l158 633h-4q-168 0 -168 -131v-442q0 -33 14 -60zM981 729h-256v49q0 49 -33 82l-168 -653q8 -2 25 -2q176 0 176 131v70h258v-5q0 -217 -109.5 -319t-324.5 -102q-20 0 -70 4l-73 -271h-183l86 316q-186 100 -186 372v312q0 422 426 422q43 0 63 -5l70 254h182 l-80 -294q195 -82 197 -361z" />
<glyph unicode="&#xa3;" horiz-adv-x="1138" d="M229 651h-196v180h170q-31 166 -31 269q0 190 120 294.5t298 104.5q242 0 359.5 -113.5t117.5 -324.5h-258q-8 104 -52 158.5t-143 54.5q-80 0 -126 -50t-46 -134q0 -82 31 -259h270v-180h-245q0 -63 -13.5 -176t-38.5 -172q139 -90 254 -90q74 0 107 57.5t39 175.5h246 q0 -100 -15.5 -176.5t-53.5 -145.5t-115 -106.5t-187 -37.5q-106 0 -179 24.5t-206 108.5q-84 -74 -144.5 -103.5t-144.5 -29.5v249q92 2 140.5 93.5t48.5 238.5q-1 41 -7 90z" />
<glyph unicode="&#xa4;" horiz-adv-x="1138" d="M1100 328l-119 -119l-117 119q-104 -100 -294.5 -100.5t-295.5 100.5l-116 -119l-119 119l115 114q-92 111 -92.5 297.5t92.5 296.5l-115 115l119 119l116 -119q104 100 295 100t295 -100l117 119l119 -119l-115 -115q92 -111 92 -297t-92 -297zM848 739q0 129 -76 216 t-203 87t-202.5 -87t-75.5 -216t75.5 -216t202.5 -87t203 87t76 216z" />
<glyph unicode="&#xa5;" horiz-adv-x="1138" d="M1022 926v-181h-258l-66 -147h324v-180h-332v-418h-241v418h-332v180h323l-65 147h-258v181h176l-256 553h250l286 -660l279 660h250l-256 -553h176z" />
<glyph unicode="&#xa6;" horiz-adv-x="454" d="M102 -20v581h250v-581h-250zM102 918v581h250v-581h-250z" />
<glyph unicode="&#xa7;" d="M823 1335l-139 -110q-86 102 -168 102q-41 0 -68.5 -24.5t-27.5 -61.5q0 -51 77.5 -134t171 -161t171.5 -183.5t78 -199.5q0 -96 -61.5 -155.5t-162.5 -77.5q106 -113 107 -240q0 -123 -86 -192.5t-209 -69.5q-119 0 -185.5 42t-144.5 132l139 109q23 -47 72 -79t113 -32 q43 0 73.5 26.5t30.5 71.5q0 57 -77.5 146.5t-171 170.5t-171.5 179t-78 172q0 129 54.5 189.5t158.5 76.5q-96 115 -96 230q0 98 79 167.5t196 69.5q194 0 325 -164zM721 555q0 27 -26.5 62.5t-110.5 125.5q-141 154 -201 154q-31 0 -54.5 -21.5t-25.5 -54.5 q0 -61 127 -192q156 -164 211 -164q37 0 58.5 25.5t21.5 64.5z" />
<glyph unicode="&#xa8;" horiz-adv-x="569" d="M-33 1499h246v-233h-246v233zM356 1499h246v-233h-246v233z" />
<glyph unicode="&#xa9;" horiz-adv-x="1638" d="M819.5 -20q-321.5 0 -553 207.5t-231.5 551.5t231.5 552t553 208t553 -208t231.5 -552t-231.5 -551.5t-553 -207.5zM1370 739q0 254 -159.5 417t-391.5 163q-233 0 -392 -163t-159 -417t159 -416.5t392 -162.5q231 0 391 162.5t160 416.5zM1032 625h185 q-25 -152 -127.5 -237t-239.5 -85q-190 0 -307 126t-117 316q0 195 113.5 319t306.5 124q141 0 239.5 -81t122.5 -230h-176q-27 131 -186 131q-98 0 -152.5 -69t-54.5 -189q0 -115 58.5 -191t152.5 -76q168 1 182 142z" />
<glyph unicode="&#xaa;" horiz-adv-x="614" d="M217 1284h-184q8 113 90 168q70 47 186 47q248 0 248 -203v-424q0 -20 8 -53h-176q0 2 -10 66q-72 -78 -193 -78q-78 0 -122 40t-44 120q0 106 91.5 168.5t261.5 113.5v45q0 61 -70 62q-37 0 -61.5 -20.5t-24.5 -51.5zM373 1004v118q-53 -20 -83 -34.5t-57.5 -40 t-27.5 -54.5q0 -51 57 -51q70 1 111 62z" />
<glyph unicode="&#xab;" horiz-adv-x="1138" d="M791 229l-250 328l250 328h225l-250 -328l250 -328h-225zM373 229l-250 328l250 328h225l-250 -328l250 -328h-225z" />
<glyph unicode="&#xac;" horiz-adv-x="1228" d="M922 182v500h-865v250h1114v-750h-249z" />
<glyph unicode="&#xad;" horiz-adv-x="681" d="M592 444h-504v226h504v-226z" />
<glyph unicode="&#xae;" horiz-adv-x="1638" d="M690 666v-342h-180v833h313q172 0 257 -57.5t85 -194.5q0 -207 -207 -221l193 -360h-199l-178 342h-84zM690 1010v-197h158q76 0 102.5 23.5t26.5 87.5q0 49 -34 67.5t-126 18.5h-127zM819.5 -20q-321.5 0 -553 207.5t-231.5 551.5t231.5 552t553 208t553 -208 t231.5 -552t-231.5 -551.5t-553 -207.5zM1370 739q0 254 -159.5 417t-391.5 163q-233 0 -392 -163t-159 -417t159 -416.5t392 -162.5q231 0 391 162.5t160 416.5z" />
<glyph unicode="&#xaf;" horiz-adv-x="569" d="M641 1311h-713v151h713v-151z" />
<glyph unicode="&#xb0;" horiz-adv-x="819" d="M409.5 1028q73.5 0 121 51t47.5 127t-47.5 127t-121 51t-120.5 -51t-47 -127t47 -127t120.5 -51zM410 913q-125 0 -210 85t-85 208t85 208t210 85t210 -85t85 -208t-85 -208t-210 -85z" />
<glyph unicode="&#xb1;" horiz-adv-x="1228" d="M489 840v274h250v-274h432v-250h-432v-275h-250v275h-432v250h432zM57 0v250h1114v-250h-1114z" />
<glyph unicode="&#xb2;" horiz-adv-x="681" d="M637 598h-606v154q287 252 361.5 334.5t74.5 150.5q0 49 -29.5 80t-89.5 31q-63 0 -96 -31t-33 -74v-33h-184v43q0 100 82 173t217 73q145 0 231 -66.5t86 -191.5q0 -57 -24.5 -114.5t-71.5 -111.5t-89 -93l-106 -94l-90 -78h367v-152z" />
<glyph unicode="&#xb3;" horiz-adv-x="681" d="M20 860h185q0 -66 31.5 -94.5t101.5 -28.5q61 0 97 34t36 89q0 72 -45 101.5t-141 29.5v152q86 0 123.5 24.5t37.5 85.5q0 39 -31.5 67t-82.5 28q-45 0 -75 -29t-32 -72h-184q2 125 86 191q80 61 207 61q133 0 215 -62.5t82 -176.5q0 -61 -30 -114.5t-85 -80.5 q139 -49 139 -213q0 -127 -89 -196.5t-224 -69.5q-160 0 -241 72.5t-81 201.5z" />
<glyph unicode="&#xb4;" horiz-adv-x="569" d="M301 1548h317l-301 -299h-206z" />
<glyph unicode="&#xb5;" d="M643 1114h258v-1114h-250v127q-162 -139 -270 -147v-373h-258v1507h258v-819q0 -123 94 -123q55 0 168 100v842z" />
<glyph unicode="&#xb6;" horiz-adv-x="1138" d="M389 -172v930q-172 0 -270.5 95t-98.5 259q0 186 104.5 276.5t334.5 90.5h659v-172h-139v-1479h-225v1479h-140v-1479h-225z" />
<glyph unicode="&#xb7;" horiz-adv-x="569" d="M284.5 713q67.5 0 111.5 -47.5t44 -108.5t-44 -108.5t-111.5 -47.5t-111.5 47.5t-44 108.5t44 108.5t111.5 47.5z" />
<glyph unicode="&#xb8;" horiz-adv-x="569" d="M4 -416l39 86q104 -35 154 -35q45 0 79.5 19.5t34.5 60.5q0 33 -24.5 54.5t-59.5 21.5q-31 0 -92 -16l-43 41l121 184h109l-86 -125l4 -4q23 14 63 14q74 0 129 -45t55 -114q0 -96 -78.5 -144.5t-181.5 -48.5q-96 0 -223 51z" />
<glyph unicode="&#xb9;" horiz-adv-x="681" d="M293 598v676h-137v110q61 12 99 31t55.5 35t39.5 49h127v-901h-184z" />
<glyph unicode="&#xba;" horiz-adv-x="614" d="M41 1061v186q0 252 266 252t266 -252v-186q0 -254 -266 -254t-266 254zM225 1270v-234q0 -78 82 -78t82 78v234q0 78 -82 78q-43 0 -63.5 -19.5t-18.5 -58.5z" />
<glyph unicode="&#xbb;" horiz-adv-x="1138" d="M598 557l-250 -328h-225l250 328l-250 328h225zM1016 557l-250 -328h-225l250 328l-250 328h225z" />
<glyph unicode="&#xbc;" horiz-adv-x="1708" d="M1106 377h209v268h-4zM909 377l408 510h182v-510h135v-144h-135v-233h-184v233h-406v144zM301 598v676h-137v110q61 12 99 31t55.5 35t39.5 49h127v-901h-184zM313 -20l830 1519h196l-829 -1519h-197z" />
<glyph unicode="&#xbd;" horiz-adv-x="1708" d="M301 598v676h-137v110q61 12 99 31t55.5 35t39.5 49h127v-901h-184zM1620 0h-606v154q287 252 361.5 334.5t74.5 150.5q0 49 -29.5 80t-89.5 31q-63 0 -96 -31t-33 -74v-33h-184v43q0 100 82 173t217 73q145 0 231 -66.5t86 -191.5q0 -57 -24.5 -114.5t-71.5 -112 t-89 -92.5l-106 -94l-90 -78h367v-152zM276 -20l830 1519h197l-830 -1519h-197z" />
<glyph unicode="&#xbe;" horiz-adv-x="1708" d="M1106 377h209v268h-4zM909 377l408 510h182v-510h135v-144h-135v-233h-184v233h-406v144zM74 860h184q0 -66 32 -94.5t101 -28.5q61 0 97 34t36 89q0 72 -45 101.5t-141 29.5v152q86 0 124 24.5t38 85.5q0 39 -32 67t-83 28q-45 0 -74.5 -29t-31.5 -72h-185q2 125 86 191 q80 61 207 61q133 0 215 -62.5t82 -176.5q0 -61 -29.5 -114.5t-85.5 -80.5q139 -49 140 -213q0 -127 -89.5 -196.5t-224.5 -69.5q-160 0 -240.5 72.5t-80.5 201.5zM354 -20l830 1519h196l-829 -1519h-197z" />
<glyph unicode="&#xbf;" horiz-adv-x="909" d="M653 4l236 -65q-39 -152 -147.5 -238t-264 -86t-269.5 93t-114 255q0 43 24.5 97.5t50.5 92t73 99.5l74 97q24 32 48.5 82t24.5 89v103h225v-201q0 -47 -131 -232.5t-131 -246.5q0 -51 39 -85t90 -34q61 0 114.5 56t57.5 124zM356 1114h291v-291h-291v291z" />
<glyph unicode="&#xc0;" horiz-adv-x="1138" d="M569 1159l-139 -598h281l-138 598h-4zM299 0h-272l366 1479h363l356 -1479h-270l-72 311h-391zM236 1862h317l190 -299h-206z" />
<glyph unicode="&#xc1;" horiz-adv-x="1138" d="M569 1159l-139 -598h281l-138 598h-4zM299 0h-272l366 1479h363l356 -1479h-270l-72 311h-391zM586 1862h317l-301 -299h-207z" />
<glyph unicode="&#xc2;" horiz-adv-x="1138" d="M569 1159l-139 -598h281l-138 598h-4zM299 0h-272l366 1479h363l356 -1479h-270l-72 311h-391zM440 1862h258l234 -299h-232l-131 168l-131 -168h-231z" />
<glyph unicode="&#xc3;" horiz-adv-x="1138" d="M569 1159l-139 -598h281l-138 598h-4zM299 0h-272l366 1479h363l356 -1479h-270l-72 311h-391zM811 1837h133q-51 -248 -227 -248q-57 0 -157.5 36t-143.5 36q-74 0 -92 -86h-129q16 109 74.5 179.5t160.5 70.5q59 0 158.5 -38t126.5 -38q37 0 62.5 24.5t33.5 63.5z" />
<glyph unicode="&#xc4;" horiz-adv-x="1138" d="M569 1159l-139 -598h281l-138 598h-4zM299 0h-272l366 1479h363l356 -1479h-270l-72 311h-391zM252 1812h246v-233h-246v233zM641 1812h246v-233h-246v233z" />
<glyph unicode="&#xc5;" horiz-adv-x="1138" d="M569 1159l-139 -598h281l-138 598h-4zM299 0h-272l366 1479h363l356 -1479h-270l-72 311h-391zM567 1550q-90 0 -153.5 64.5t-63.5 155t63.5 155t153.5 64.5t155.5 -65.5t65.5 -154.5q0 -90 -65.5 -154.5t-155.5 -64.5zM567 1878q-45 0 -75.5 -31.5t-30.5 -77.5 q0 -47 30.5 -77.5t75.5 -30.5t78 31.5t33 77t-33 77t-78 31.5z" />
<glyph unicode="&#xc6;" horiz-adv-x="2048" d="M954 1253l-319 -643h356v643h-37zM332 0h-303l757 1479h1090v-250h-602v-340h452v-250h-452v-389h627v-250h-910v360h-483z" />
<glyph unicode="&#xc7;" horiz-adv-x="1138" d="M385 1040v-602q0 -117 47 -163t137 -46t137.5 46.5t47.5 162.5v99h282v-62q0 -481 -444 -495l-72 -105l4 -4q20 14 64 14q74 0 129 -45t55 -114q0 -96 -79 -144.5t-181 -48.5q-94 0 -223 51l39 86q104 -35 153 -35q45 0 80 19.5t35 60.5q0 33 -24.5 54.5t-59.5 21.5 q-31 0 -92 -16l-43 41l110 168q-385 41 -385 491v529q0 496 467 495.5t467 -495.5v-5h-282v41q0 117 -47.5 163t-137.5 46t-137 -46t-47 -163z" />
<glyph unicode="&#xc8;" d="M922 0h-795v1479h774v-250h-491v-340h374v-250h-374v-389h512v-250zM178 1862h318l190 -299h-207z" />
<glyph unicode="&#xc9;" d="M922 0h-795v1479h774v-250h-491v-340h374v-250h-374v-389h512v-250zM528 1862h318l-301 -299h-207z" />
<glyph unicode="&#xca;" d="M922 0h-795v1479h774v-250h-491v-340h374v-250h-374v-389h512v-250zM383 1862h258l233 -299h-231l-131 168l-131 -168h-231z" />
<glyph unicode="&#xcb;" d="M922 0h-795v1479h774v-250h-491v-340h374v-250h-374v-389h512v-250zM195 1812h245v-233h-245v233zM584 1812h245v-233h-245v233z" />
<glyph unicode="&#xcc;" horiz-adv-x="569" d="M426 0h-283v1479h283v-1479zM-49 1862h317l191 -299h-207z" />
<glyph unicode="&#xcd;" horiz-adv-x="569" d="M426 0h-283v1479h283v-1479zM301 1862h317l-301 -299h-206z" />
<glyph unicode="&#xce;" horiz-adv-x="569" d="M426 0h-283v1479h283v-1479zM156 1862h258l233 -299h-231l-131 168l-131 -168h-232z" />
<glyph unicode="&#xcf;" horiz-adv-x="569" d="M426 0h-283v1479h283v-1479zM-33 1812h246v-233h-246v233zM356 1812h246v-233h-246v233z" />
<glyph unicode="&#xd0;" horiz-adv-x="1138" d="M16 639v250h111v590h393q250 0 379 -120t137 -392v-455q-8 -272 -137 -392t-379 -120h-393v639h-111zM590 889v-250h-180v-389h98q123 0 184.5 67.5t61.5 227.5v389q0 158 -57.5 226.5t-188.5 68.5h-98v-340h180z" />
<glyph unicode="&#xd1;" horiz-adv-x="1251" d="M401 0h-258v1479h310l393 -877h4v877h258v-1479h-270l-432 954h-5v-954zM868 1837h133q-51 -248 -227 -248q-57 0 -157.5 36t-143.5 36q-74 0 -92 -86h-129q16 109 74.5 179.5t160.5 70.5q59 0 158.5 -38t126.5 -38q37 0 62.5 24.5t33.5 63.5z" />
<glyph unicode="&#xd2;" horiz-adv-x="1138" d="M102 475v529q0 496 467 495.5t467 -495.5v-529q0 -496 -467 -496t-467 496zM385 1040v-602q0 -117 47 -163t137 -46t137.5 46.5t47.5 162.5v602q0 117 -47.5 163t-137.5 46t-137 -46t-47 -163zM236 1862h317l190 -299h-206z" />
<glyph unicode="&#xd3;" horiz-adv-x="1138" d="M102 475v529q0 496 467 495.5t467 -495.5v-529q0 -496 -467 -496t-467 496zM385 1040v-602q0 -117 47 -163t137 -46t137.5 46.5t47.5 162.5v602q0 117 -47.5 163t-137.5 46t-137 -46t-47 -163zM586 1862h317l-301 -299h-207z" />
<glyph unicode="&#xd4;" horiz-adv-x="1138" d="M102 475v529q0 496 467 495.5t467 -495.5v-529q0 -496 -467 -496t-467 496zM385 1040v-602q0 -117 47 -163t137 -46t137.5 46.5t47.5 162.5v602q0 117 -47.5 163t-137.5 46t-137 -46t-47 -163zM440 1862h258l234 -299h-232l-131 168l-131 -168h-231z" />
<glyph unicode="&#xd5;" horiz-adv-x="1138" d="M102 475v529q0 496 467 495.5t467 -495.5v-529q0 -496 -467 -496t-467 496zM385 1040v-602q0 -117 47 -163t137 -46t137.5 46.5t47.5 162.5v602q0 117 -47.5 163t-137.5 46t-137 -46t-47 -163zM811 1837h133q-51 -248 -227 -248q-57 0 -157.5 36t-143.5 36q-74 0 -92 -86 h-129q16 109 74.5 179.5t160.5 70.5q59 0 158.5 -38t126.5 -38q37 0 62.5 24.5t33.5 63.5z" />
<glyph unicode="&#xd6;" horiz-adv-x="1138" d="M102 475v529q0 496 467 495.5t467 -495.5v-529q0 -496 -467 -496t-467 496zM385 1040v-602q0 -117 47 -163t137 -46t137.5 46.5t47.5 162.5v602q0 117 -47.5 163t-137.5 46t-137 -46t-47 -163zM252 1812h246v-233h-246v233zM641 1812h246v-233h-246v233z" />
<glyph unicode="&#xd7;" horiz-adv-x="1228" d="M438 559l-381 381l179 174l378 -379l381 379l176 -174l-380 -383l380 -381l-176 -176l-381 381l-378 -381l-179 176l381 381v2z" />
<glyph unicode="&#xd8;" horiz-adv-x="1138" d="M389 537l332 647q-41 66 -152 65q-90 0 -137 -46t-47 -163v-503h4zM750 887l-316 -613q39 -45 135 -45q90 0 137.5 46.5t47.5 162.5v449h-4zM913 1577h213l-149 -287q59 -113 59 -286v-529q0 -496 -467 -495q-150 0 -245 51l-99 -191h-213l166 320q-76 117 -76 315v529 q0 496 467 495q162 0 271 -61z" />
<glyph unicode="&#xd9;" horiz-adv-x="1251" d="M143 1479h283v-1035q0 -215 199 -215q201 0 200 215v1035h283v-1037q0 -236 -128 -349t-355.5 -113t-354.5 113.5t-127 348.5v1037zM293 1862h317l191 -299h-207z" />
<glyph unicode="&#xda;" horiz-adv-x="1251" d="M143 1479h283v-1035q0 -215 199 -215q201 0 200 215v1035h283v-1037q0 -236 -128 -349t-355.5 -113t-354.5 113.5t-127 348.5v1037zM643 1862h318l-302 -299h-206z" />
<glyph unicode="&#xdb;" horiz-adv-x="1251" d="M143 1479h283v-1035q0 -215 199 -215q201 0 200 215v1035h283v-1037q0 -236 -128 -349t-355.5 -113t-354.5 113.5t-127 348.5v1037zM498 1862h258l233 -299h-231l-131 168l-131 -168h-232z" />
<glyph unicode="&#xdc;" horiz-adv-x="1251" d="M143 1479h283v-1035q0 -215 199 -215q201 0 200 215v1035h283v-1037q0 -236 -128 -349t-355.5 -113t-354.5 113.5t-127 348.5v1037zM309 1812h246v-233h-246v233zM698 1812h246v-233h-246v233z" />
<glyph unicode="&#xdd;" horiz-adv-x="1138" d="M326 1479l247 -596l240 596h301l-403 -881v-598h-283v598l-403 881h301zM586 1862h317l-301 -299h-207z" />
<glyph unicode="&#xde;" horiz-adv-x="1138" d="M426 0h-283v1479h283v-271h125q258 0 388 -114.5t130 -327.5t-130 -327.5t-388 -114.5h-125v-324zM426 975v-418h152q209 0 208.5 209t-208.5 209h-152z" />
<glyph unicode="&#xdf;" d="M381 0h-258v1071q0 197 87 302.5t300 105.5q176 0 271.5 -106.5t95.5 -305.5q0 -80 -35 -153.5t-99 -108.5q109 -57 151 -154.5t42 -257.5q0 -199 -84 -306t-219 -107q-80 0 -150 30v234q37 -18 82 -19q59 0 86 48.5t27 154.5q0 129 -40 192.5t-153 63.5v209q70 4 108 51 t38 129q0 180 -135 180q-57 0 -86 -34.5t-29 -85.5v-1133z" />
<glyph unicode="&#xe0;" d="M356 788h-258q14 176 138 267q106 80 276 80q379 0 379 -338v-707q0 -41 14 -90h-258q-4 16 -9 52t-9 57q-129 -129 -307 -129q-121 0 -188.5 67.5t-67.5 198.5q0 94 40.5 166.5t124.5 127t175.5 92.5t226.5 79v82q0 68 -37 100.5t-96.5 32.5t-101.5 -39.5t-42 -98.5z M633 274v271q-309 -106 -309 -256q0 -55 30.5 -86t83.5 -31q93 0 195 102zM178 1548h318l190 -299h-207z" />
<glyph unicode="&#xe1;" d="M356 788h-258q14 176 138 267q106 80 276 80q379 0 379 -338v-707q0 -41 14 -90h-258q-4 16 -9 52t-9 57q-129 -129 -307 -129q-121 0 -188.5 67.5t-67.5 198.5q0 94 40.5 166.5t124.5 127t175.5 92.5t226.5 79v82q0 68 -37 100.5t-96.5 32.5t-101.5 -39.5t-42 -98.5z M633 274v271q-309 -106 -309 -256q0 -55 30.5 -86t83.5 -31q93 0 195 102zM528 1548h318l-301 -299h-207z" />
<glyph unicode="&#xe2;" d="M356 788h-258q14 176 138 267q106 80 276 80q379 0 379 -338v-707q0 -41 14 -90h-258q-4 16 -9 52t-9 57q-129 -129 -307 -129q-121 0 -188.5 67.5t-67.5 198.5q0 94 40.5 166.5t124.5 127t175.5 92.5t226.5 79v82q0 68 -37 100.5t-96.5 32.5t-101.5 -39.5t-42 -98.5z M633 274v271q-309 -106 -309 -256q0 -55 30.5 -86t83.5 -31q93 0 195 102zM383 1548h258l233 -299h-231l-131 168l-131 -168h-231z" />
<glyph unicode="&#xe3;" d="M356 788h-258q14 176 138 267q106 80 276 80q379 0 379 -338v-707q0 -41 14 -90h-258q-4 16 -9 52t-9 57q-129 -129 -307 -129q-121 0 -188.5 67.5t-67.5 198.5q0 94 40.5 166.5t124.5 127t175.5 92.5t226.5 79v82q0 68 -37 100.5t-96.5 32.5t-101.5 -39.5t-42 -98.5z M633 274v271q-309 -106 -309 -256q0 -55 30.5 -86t83.5 -31q93 0 195 102zM754 1524h133q-51 -248 -228 -248q-57 0 -157.5 36t-143.5 36q-74 0 -92 -86h-129q16 109 74.5 179t161.5 70q59 0 158.5 -37.5t125.5 -37.5q37 0 63 24.5t34 63.5z" />
<glyph unicode="&#xe4;" d="M356 788h-258q14 176 138 267q106 80 276 80q379 0 379 -338v-707q0 -41 14 -90h-258q-4 16 -9 52t-9 57q-129 -129 -307 -129q-121 0 -188.5 67.5t-67.5 198.5q0 94 40.5 166.5t124.5 127t175.5 92.5t226.5 79v82q0 68 -37 100.5t-96.5 32.5t-101.5 -39.5t-42 -98.5z M633 274v271q-309 -106 -309 -256q0 -55 30.5 -86t83.5 -31q93 0 195 102zM195 1499h245v-233h-245v233zM584 1499h245v-233h-245v233z" />
<glyph unicode="&#xe5;" d="M356 788h-258q14 176 138 267q106 80 276 80q379 0 379 -338v-707q0 -41 14 -90h-258q-4 16 -9 52t-9 57q-129 -129 -307 -129q-121 0 -188.5 67.5t-67.5 198.5q0 94 40.5 166.5t124.5 127t175.5 92.5t226.5 79v82q0 68 -37 100.5t-96.5 32.5t-101.5 -39.5t-42 -98.5z M633 274v271q-309 -106 -309 -256q0 -55 30.5 -86t83.5 -31q93 0 195 102zM510 1237q-90 0 -153.5 64.5t-63.5 154.5t63.5 154.5t153.5 64.5t155.5 -65.5t65.5 -153.5q0 -90 -65.5 -154.5t-155.5 -64.5zM510 1565q-45 0 -76 -32t-31 -77q0 -47 31 -77.5t76 -30.5t78 31.5 t33 76.5t-33 77t-78 32z" />
<glyph unicode="&#xe6;" horiz-adv-x="1593" d="M647 274v271q-295 -113 -295 -256q0 -55 31 -86t84 -31q102 0 180 102zM1466 496h-561v-148q0 -80 42 -120t110 -40q78 0 114.5 43t36.5 113h258q-10 -174 -113.5 -269t-295.5 -95q-217 0 -338 143q-117 -90 -198 -116.5t-171 -26.5q-121 0 -188.5 67.5t-67.5 198.5 q0 94 41 166.5t123 127t170 92.5t219 79v82q0 133 -119 133q-59 0 -101 -39t-42 -99h-258q12 172 123.5 259.5t257.5 87.5q195 0 295 -127q113 127 274 127q168 0 278.5 -105.5t110.5 -273.5v-260zM905 705h303v61q0 160 -151.5 160t-151.5 -160v-61z" />
<glyph unicode="&#xe7;" d="M920 729h-256v49q0 63 -41 97t-111 34t-111 -33.5t-41 -97.5v-442q0 -63 41 -97t111 -34t111 33.5t41 97.5v70h258v-5q0 -410 -387 -421l-72 -105l4 -4q20 14 63 14q74 0 129.5 -45t55.5 -114q0 -96 -79 -144.5t-181 -48.5q-94 0 -224 51l39 86q104 -35 154 -35 q45 0 80 19.5t35 60.5q0 33 -25 54.5t-59 21.5q-31 0 -93 -16l-43 41l111 168q-328 39 -328 417v312q0 422 410 422q402 0 408 -406z" />
<glyph unicode="&#xe8;" d="M922 496h-562v-148q0 -80 42 -120t110 -40q78 0 115 43t37 113h258q-10 -174 -113.5 -269t-296.5 -95q-186 0 -298 106.5t-112 288.5v364q0 182 112 289t298 107q180 0 295 -104.5t115 -274.5v-260zM360 705h304v61q0 160 -152 160t-152 -160v-61zM178 1548h318l190 -299 h-207z" />
<glyph unicode="&#xe9;" d="M922 496h-562v-148q0 -80 42 -120t110 -40q78 0 115 43t37 113h258q-10 -174 -113.5 -269t-296.5 -95q-186 0 -298 106.5t-112 288.5v364q0 182 112 289t298 107q180 0 295 -104.5t115 -274.5v-260zM360 705h304v61q0 160 -152 160t-152 -160v-61zM528 1548h318 l-301 -299h-207z" />
<glyph unicode="&#xea;" d="M922 496h-562v-148q0 -80 42 -120t110 -40q78 0 115 43t37 113h258q-10 -174 -113.5 -269t-296.5 -95q-186 0 -298 106.5t-112 288.5v364q0 182 112 289t298 107q180 0 295 -104.5t115 -274.5v-260zM360 705h304v61q0 160 -152 160t-152 -160v-61zM383 1548h258l233 -299 h-231l-131 168l-131 -168h-231z" />
<glyph unicode="&#xeb;" d="M922 496h-562v-148q0 -80 42 -120t110 -40q78 0 115 43t37 113h258q-10 -174 -113.5 -269t-296.5 -95q-186 0 -298 106.5t-112 288.5v364q0 182 112 289t298 107q180 0 295 -104.5t115 -274.5v-260zM360 705h304v61q0 160 -152 160t-152 -160v-61zM195 1499h245v-233 h-245v233zM584 1499h245v-233h-245v233z" />
<glyph unicode="&#xec;" horiz-adv-x="569" d="M414 0h-258v1114h258v-1114zM-49 1548h317l191 -299h-207z" />
<glyph unicode="&#xed;" horiz-adv-x="569" d="M414 0h-258v1114h258v-1114zM301 1548h317l-301 -299h-206z" />
<glyph unicode="&#xee;" horiz-adv-x="569" d="M414 0h-258v1114h258v-1114zM156 1548h258l233 -299h-231l-131 168l-131 -168h-232z" />
<glyph unicode="&#xef;" horiz-adv-x="569" d="M414 0h-258v1114h258v-1114zM-33 1499h246v-233h-246v233zM356 1499h246v-233h-246v233z" />
<glyph unicode="&#xf0;" d="M360 717v-389q0 -59 41 -91t111 -32t111 31.5t41 91.5v389q0 59 -41 91t-111 32t-111 -32t-41 -91zM360 1450l242 29l66 -76l221 76l61 -152l-186 -65q158 -268 158 -594v-293q0 -395 -410 -395t-410 395v293q0 397 410 397q51 0 88 -8q-14 59 -51 131l-225 -78l-62 152 l195 67q-7 8 -97 121z" />
<glyph unicode="&#xf1;" d="M381 0h-258v1114h250v-127q84 72 149.5 110t139.5 38q121 0 180 -68t59 -219v-848h-258v819q0 123 -94 123q-55 0 -168 -100v-842zM754 1524h133q-51 -248 -228 -248q-57 0 -157.5 36t-143.5 36q-74 0 -92 -86h-129q16 109 74.5 179t161.5 70q59 0 158.5 -37.5 t125.5 -37.5q37 0 63 24.5t34 63.5z" />
<glyph unicode="&#xf2;" d="M102 401v312q0 422 410 422t410 -422v-312q0 -422 -410 -422t-410 422zM360 778v-442q0 -63 41 -97t111 -34t111 33.5t41 97.5v442q0 63 -41 97t-111 34t-111 -34t-41 -97zM178 1548h318l190 -299h-207z" />
<glyph unicode="&#xf3;" d="M102 401v312q0 422 410 422t410 -422v-312q0 -422 -410 -422t-410 422zM360 778v-442q0 -63 41 -97t111 -34t111 33.5t41 97.5v442q0 63 -41 97t-111 34t-111 -34t-41 -97zM528 1548h318l-301 -299h-207z" />
<glyph unicode="&#xf4;" d="M102 401v312q0 422 410 422t410 -422v-312q0 -422 -410 -422t-410 422zM360 778v-442q0 -63 41 -97t111 -34t111 33.5t41 97.5v442q0 63 -41 97t-111 34t-111 -34t-41 -97zM383 1548h258l233 -299h-231l-131 168l-131 -168h-231z" />
<glyph unicode="&#xf5;" d="M102 401v312q0 422 410 422t410 -422v-312q0 -422 -410 -422t-410 422zM360 778v-442q0 -63 41 -97t111 -34t111 33.5t41 97.5v442q0 63 -41 97t-111 34t-111 -34t-41 -97zM754 1524h133q-51 -248 -228 -248q-57 0 -157.5 36t-143.5 36q-74 0 -92 -86h-129 q16 109 74.5 179t161.5 70q59 0 158.5 -37.5t125.5 -37.5q37 0 63 24.5t34 63.5z" />
<glyph unicode="&#xf6;" d="M102 401v312q0 422 410 422t410 -422v-312q0 -422 -410 -422t-410 422zM360 778v-442q0 -63 41 -97t111 -34t111 33.5t41 97.5v442q0 63 -41 97t-111 34t-111 -34t-41 -97zM195 1499h245v-233h-245v233zM584 1499h245v-233h-245v233z" />
<glyph unicode="&#xf7;" horiz-adv-x="1228" d="M1171 432h-1114v250h1114v-250zM418 1014q0 80 58.5 137t137.5 57q78 0 135.5 -58t57.5 -136q0 -74 -58.5 -134.5t-132.5 -60.5q-82 0 -140 57.5t-58 137.5zM418 100q0 80 58.5 137.5t137.5 57.5q78 0 135.5 -57.5t57.5 -137.5q0 -74 -58.5 -134t-132.5 -60 q-82 0 -140 58t-58 136z" />
<glyph unicode="&#xf8;" d="M365 428l241 457q-37 25 -94 24q-70 0 -111 -33.5t-41 -97.5v-350h5zM659 649l-227 -428q33 -16 80 -16q70 0 111 33.5t41 97.5v313h-5zM319 12l-129 -241h-182l180 335q-86 102 -86 295v312q0 422 410 422q123 0 209 -39l104 194h183l-160 -299q74 -98 74 -278v-312 q0 -422 -410 -421q-115 -1 -193 32z" />
<glyph unicode="&#xf9;" d="M643 1114h258v-1114h-250v127q-84 -72 -149.5 -109.5t-139.5 -37.5q-121 0 -180 67.5t-59 218.5v848h258v-819q0 -123 94 -123q55 0 168 100v842zM160 1548h317l191 -299h-207z" />
<glyph unicode="&#xfa;" d="M643 1114h258v-1114h-250v127q-84 -72 -149.5 -109.5t-139.5 -37.5q-121 0 -180 67.5t-59 218.5v848h258v-819q0 -123 94 -123q55 0 168 100v842zM510 1548h317l-301 -299h-207z" />
<glyph unicode="&#xfb;" d="M643 1114h258v-1114h-250v127q-84 -72 -149.5 -109.5t-139.5 -37.5q-121 0 -180 67.5t-59 218.5v848h258v-819q0 -123 94 -123q55 0 168 100v842zM365 1548h258l233 -299h-231l-131 168l-132 -168h-231z" />
<glyph unicode="&#xfc;" d="M643 1114h258v-1114h-250v127q-84 -72 -149.5 -109.5t-139.5 -37.5q-121 0 -180 67.5t-59 218.5v848h258v-819q0 -123 94 -123q55 0 168 100v842zM176 1499h246v-233h-246v233zM565 1499h246v-233h-246v233z" />
<glyph unicode="&#xfd;" horiz-adv-x="909" d="M66 -389v225q25 -4 75 -4q78 0 132.5 52.5t54.5 95.5q0 70 -47 235l-258 899h262l174 -737h4l162 737h262l-297 -1110q-59 -227 -154.5 -312t-288.5 -85q-24 0 -81 4zM471 1548h317l-301 -299h-206z" />
<glyph unicode="&#xfe;" d="M381 862v-610q74 -80 156 -80q59 0 93 56.5t34 209.5v238q0 154 -34 210t-93 56q-82 0 -156 -80zM123 1479h254v-480h4q25 43 102.5 89.5t155.5 46.5q147 0 215 -111t68 -332v-270q0 -221 -68 -331.5t-215 -110.5q-90 0 -258 122v-495h-258v1872z" />
<glyph unicode="&#xff;" horiz-adv-x="909" d="M66 -389v225q25 -4 75 -4q78 0 132.5 52.5t54.5 95.5q0 70 -47 235l-258 899h262l174 -737h4l162 737h262l-297 -1110q-59 -227 -154.5 -312t-288.5 -85q-24 0 -81 4zM137 1499h246v-233h-246v233zM526 1499h246v-233h-246v233z" />
<glyph unicode="&#x152;" horiz-adv-x="1933" d="M401 893v-307q0 -201 64.5 -279t226.5 -78q131 0 180.5 64.5t49.5 202.5v487q0 137 -49.5 201.5t-180.5 64.5q-162 0 -226.5 -77.5t-64.5 -278.5zM1204 1229v-340h457v-250h-457v-389h627v-250h-846q-86 0 -172 -10q-129 -10 -188 -10q-231 0 -368.5 154.5t-137.5 424.5 v391q0 270 156.5 409.5t424.5 139.5q123 0 232 -10q158 -10 211 -10h669v-250h-608z" />
<glyph unicode="&#x153;" horiz-adv-x="1593" d="M360 778v-442q0 -63 41 -97t111 -34t111 33.5t41 97.5v442q0 63 -41 97t-111 34t-111 -34t-41 -97zM1491 496h-569v-148q0 -78 45 -119t114 -41q78 0 115 43t37 113h258q-10 -174 -113.5 -269t-296.5 -95q-184 0 -286 147q-98 -147 -295 -147q-397 0 -398 421v312 q0 422 398 422q197 0 295 -148q102 147 299 148q172 0 284.5 -105.5t112.5 -273.5v-260zM922 705h311v61q0 160 -152 160q-78 0 -118.5 -42t-40.5 -118v-61z" />
<glyph unicode="&#x178;" horiz-adv-x="1138" d="M326 1479l247 -596l240 596h301l-403 -881v-598h-283v598l-403 881h301zM252 1812h246v-233h-246v233zM641 1812h246v-233h-246v233z" />
<glyph unicode="&#x2c6;" horiz-adv-x="569" d="M156 1548h258l233 -299h-231l-131 168l-131 -168h-232z" />
<glyph unicode="&#x2dc;" horiz-adv-x="569" d="M526 1524h133q-51 -248 -227 -248q-57 0 -157.5 36t-143.5 36q-74 0 -92 -86h-129q16 109 74.5 179t160.5 70q59 0 158.5 -37.5t126.5 -37.5q37 0 62.5 24.5t33.5 63.5z" />
<glyph unicode="&#x2000;" horiz-adv-x="993" />
<glyph unicode="&#x2001;" horiz-adv-x="1988" />
<glyph unicode="&#x2002;" horiz-adv-x="993" />
<glyph unicode="&#x2003;" horiz-adv-x="1988" />
<glyph unicode="&#x2004;" horiz-adv-x="661" />
<glyph unicode="&#x2005;" horiz-adv-x="495" />
<glyph unicode="&#x2006;" horiz-adv-x="329" />
<glyph unicode="&#x2007;" horiz-adv-x="329" />
<glyph unicode="&#x2008;" horiz-adv-x="247" />
<glyph unicode="&#x2009;" horiz-adv-x="397" />
<glyph unicode="&#x200a;" horiz-adv-x="108" />
<glyph unicode="&#x2010;" horiz-adv-x="681" d="M592 444h-504v226h504v-226z" />
<glyph unicode="&#x2011;" horiz-adv-x="681" d="M592 444h-504v226h504v-226z" />
<glyph unicode="&#x2012;" horiz-adv-x="681" d="M592 444h-504v226h504v-226z" />
<glyph unicode="&#x2013;" d="M1024 471h-1024v172h1024v-172z" />
<glyph unicode="&#x2014;" horiz-adv-x="2048" d="M2048 471h-2048v172h2048v-172z" />
<glyph unicode="&#x2018;" horiz-adv-x="454" d="M354 1499l-104 -303h123v-291h-291v291l129 303h143z" />
<glyph unicode="&#x2019;" horiz-adv-x="454" d="M100 885l105 303h-123v291h291v-291l-129 -303h-144z" />
<glyph unicode="&#x201a;" horiz-adv-x="454" d="M100 -303l105 303h-123v291h291v-291l-129 -303h-144z" />
<glyph unicode="&#x201c;" horiz-adv-x="909" d="M354 1499l-104 -303h123v-291h-291v291l129 303h143zM809 1499l-104 -303h122v-291h-290v291l129 303h143z" />
<glyph unicode="&#x201d;" horiz-adv-x="909" d="M100 885l105 303h-123v291h291v-291l-129 -303h-144zM555 885l104 303h-122v291h290v-291l-129 -303h-143z" />
<glyph unicode="&#x201e;" horiz-adv-x="909" d="M100 -303l105 303h-123v291h291v-291l-129 -303h-144zM555 -303l104 303h-122v291h290v-291l-129 -303h-143z" />
<glyph unicode="&#x2022;" d="M141 739.5q0 153.5 107.5 261t261.5 107.5t262.5 -107.5t108.5 -261t-108.5 -262t-262.5 -108.5t-261.5 108.5t-107.5 262z" />
<glyph unicode="&#x2026;" horiz-adv-x="2048" d="M487 0h-290v291h290v-291zM1851 0h-290v291h290v-291zM1169 0h-290v291h290v-291z" />
<glyph unicode="&#x202f;" horiz-adv-x="397" />
<glyph unicode="&#x2039;" horiz-adv-x="681" d="M78 557l250 328h225l-250 -328l250 -328h-225z" />
<glyph unicode="&#x203a;" horiz-adv-x="681" d="M604 557l-250 -328h-225l250 328l-250 328h225z" />
<glyph unicode="&#x205f;" horiz-adv-x="495" />
<glyph unicode="&#x20ac;" horiz-adv-x="1138" d="M913 801h-438v-148h389l-57 -180h-332v-10q0 -119 61.5 -184.5t176.5 -65.5q197 0 321 84v-242q-137 -72 -342 -71q-213 0 -341 118.5t-128 311.5v59h-162l58 180h104v148h-162l58 180h104v98q0 186 142.5 303t353.5 117q223 0 379 -123l-74 -231q-133 121 -317 121 q-106 0 -169 -68t-63 -162v-55h496z" />
<glyph unicode="&#x2122;" horiz-adv-x="2048" d="M1212 1479l193 -512l190 512h314v-844h-217v573h-4l-201 -573h-166l-201 573h-4v-573h-217v844h313zM764 1479v-172h-236v-672h-229v672h-233v172h698z" />
<glyph unicode="&#xe000;" horiz-adv-x="1115" d="M0 1115h1115v-1115h-1115v1115z" />
<glyph unicode="&#xfb01;" d="M659 1065h259v-1065h-259v1065zM918 1257h-259v234h259v-234zM553 1487v-213h-74q-88 0 -88 -94v-115h154v-209h-154v-856h-258v856h-117v209h117v106q0 184 73 256t224 72q37 0 123 -12z" />
<glyph unicode="&#xfb02;" d="M659 0v1479h259v-1479h-259zM553 1487v-213h-74q-88 0 -88 -94v-115h154v-209h-154v-856h-258v856h-117v209h117v106q0 184 73 256t224 72q37 0 123 -12z" />
<glyph unicode="&#xfb03;" horiz-adv-x="1708" d="M1295 1114h258v-1114h-258v1114zM1553 1307h-258v233h258v-233zM1122 1487v-213h-74q-88 0 -88 -94v-115h154v-209h-154v-856h-258v856h-117v209h117v106q0 184 73 256t224 72q37 0 123 -12zM553 1487v-213h-74q-88 0 -88 -94v-115h154v-209h-154v-856h-258v856h-117v209 h117v106q0 184 73 256t224 72q37 0 123 -12z" />
<glyph unicode="&#xfb04;" horiz-adv-x="1708" d="M1295 0v1479h258v-1479h-258zM1122 1487v-213h-74q-88 0 -88 -94v-115h154v-209h-154v-856h-258v856h-117v209h117v106q0 184 73 256t224 72q37 0 123 -12zM553 1487v-213h-74q-88 0 -88 -94v-115h154v-209h-154v-856h-258v856h-117v209h117v106q0 184 73 256t224 72 q37 0 123 -12z" />
</font>
</defs>
</svg>
